# Star.Wars.The.Clone.Wars.2008.1080p.BluRay.REMUX.VC-1.TrueHD.5.1-HDT

```text
General
Unique ID                   : 23819482019482019284019284019284
Complete name               : Star.Wars.The.Clone.Wars.2008.1080p.BluRay.REMUX.VC-1.TrueHD.5.1-HDT.mkv
Format                      : Matroska
Format version              : Version 4
File size                   : 19.8 GiB
Duration                    : 1 h 38 min 23 s
Overall bit rate mode       : Variable
Overall bit rate            : 28.8 Mb/s
Frame rate                  : 23.976 FPS
Movie name                  : Star Wars: The Clone Wars (2008)
Encoded date                : 2023-05-14 12:00:00 UTC
Writing application         : mkvmerge v78.0 ('Where Are We Going?') 64-bit
Writing library             : libebml v1.4.4 + libmatroska v1.7.1

Video
ID                          : 1
Format                      : VC-1
Format profile              : Advanced@L3
Codec ID                    : V_MS/VFW/FOURCC / WVC1
Codec ID/Hint               : Microsoft
Duration                    : 1 h 38 min 23 s
Bit rate mode               : Variable
Bit rate                    : 16.9 Mb/s
Width                       : 1 920 pixels
Height                      : 1 080 pixels
Display aspect ratio        : 16:9
Frame rate mode             : Constant
Frame rate                  : 23.976 (24000/1001) FPS
Color space                 : YUV
Chroma subsampling          : 4:2:0
Bit depth                   : 8 bits
Scan type                   : Progressive
Compression mode            : Lossy
Bits/(Pixel*Frame)          : 0.340
Stream size                 : 11.6 GiB (59%)
Language                    : English
Default                     : Yes
Forced                      : No

Audio #1
ID                          : 2
Format                      : MLP FBA
Format/Info                 : Dolby TrueHD
Commercial name             : Dolby TrueHD
Codec ID                    : A_TRUEHD
Duration                    : 1 h 38 min 23 s
Bit rate mode               : Variable
Bit rate                    : 1 842 kb/s
Maximum bit rate            : 3 102 kb/s
Channel(s)                  : 6 channels
Channel layout              : L R C LFE Ls Rs
Sampling rate               : 48.0 kHz
Frame rate                  : 1 200.000 FPS (40 SPF)
Bit depth                   : 16 bits
Compression mode            : Lossless
Stream size                 : 1.27 GiB (6%)
Title                       : English / Dolby TrueHD 5.1 EX
Language                    : English
Default                     : Yes
Forced                      : No

Audio #2
ID                          : 3
Format                      : AC-3
Format/Info                 : Audio Coding 3
Commercial name             : Dolby Digital
Codec ID                    : A_AC3
Duration                    : 1 h 38 min 23 s
Bit rate mode               : Constant
Bit rate                    : 640 kb/s
Channel(s)                  : 6 channels
Channel layout              : L R C LFE Ls Rs
Sampling rate               : 48.0 kHz
Frame rate                  : 31.250 FPS (1536 SPF)
Bit depth                   : 16 bits
Compression mode            : Lossy
Stream size                 : 451 MiB (2%)
Title                       : English / Dolby Digital 5.1 EX @ 640 kbps
Language                    : English
Default                     : No
Forced                      : No

Audio #3
ID                          : 4
Format                      : AC-3
Format/Info                 : Audio Coding 3
Commercial name             : Dolby Digital
Codec ID                    : A_AC3
Duration                    : 1 h 38 min 23 s
Bit rate mode               : Constant
Bit rate                    : 640 kb/s
Channel(s)                  : 6 channels
Channel layout              : L R C LFE Ls Rs
Sampling rate               : 48.0 kHz
Frame rate                  : 31.250 FPS (1536 SPF)
Bit depth                   : 16 bits
Compression mode            : Lossy
Stream size                 : 451 MiB (2%)
Title                       : French / Dolby Digital 5.1 EX @ 640 kbps
Language                    : French (Canadian)
Default                     : No
Forced                      : No

Audio #4
ID                          : 5
Format                      : AC-3
Format/Info                 : Audio Coding 3
Commercial name             : Dolby Digital
Codec ID                    : A_AC3
Duration                    : 1 h 38 min 23 s
Bit rate mode               : Constant
Bit rate                    : 640 kb/s
Channel(s)                  : 6 channels
Channel layout              : L R C LFE Ls Rs
Sampling rate               : 48.0 kHz
Frame rate                  : 31.250 FPS (1536 SPF)
Bit depth                   : 16 bits
Compression mode            : Lossy
Stream size                 : 451 MiB (2%)
Title                       : Spanish / Dolby Digital 5.1 EX @ 640 kbps
Language                    : Spanish
Default                     : No
Forced                      : No

Audio #5
ID                          : 6
Format                      : AC-3
Format/Info                 : Audio Coding 3
Commercial name             : Dolby Digital
Codec ID                    : A_AC3
Duration                    : 1 h 38 min 23 s
Bit rate mode               : Constant
Bit rate                    : 640 kb/s
Channel(s)                  : 6 channels
Channel layout              : L R C LFE Ls Rs
Sampling rate               : 48.0 kHz
Frame rate                  : 31.250 FPS (1536 SPF)
Bit depth                   : 16 bits
Compression mode            : Lossy
Stream size                 : 451 MiB (2%)
Title                       : Portuguese / Dolby Digital 5.1 EX @ 640 kbps
Language                    : Portuguese
Default                     : No
Forced                      : No

Text #1
ID                          : 7
Format                      : PGS
Codec ID                    : S_HDMV/PGS
Codec ID/Info               : Picture based subtitle format used on BDs/HD-DVDs
Duration                    : 1 h 37 min 12 s
Bit rate                    : 38.2 kb/s
Count of elements           : 2842
Stream size                 : 26.6 MiB (0%)
Title                       : English SDH (PGS)
Language                    : English
Default                     : No
Forced                      : No

Text #2
ID                          : 8
Format                      : PGS
Codec ID                    : S_HDMV/PGS
Codec ID/Info               : Picture based subtitle format used on BDs/HD-DVDs
Duration                    : 1 h 36 min 45 s
Bit rate                    : 29.4 kb/s
Count of elements           : 2150
Stream size                 : 20.4 MiB (0%)
Title                       : French (PGS)
Language                    : French
Default                     : No
Forced                      : No

Text #3
ID                          : 9
Format                      : PGS
Codec ID                    : S_HDMV/PGS
Codec ID/Info               : Picture based subtitle format used on BDs/HD-DVDs
Duration                    : 1 h 36 min 50 s
Bit rate                    : 28.1 kb/s
Count of elements           : 2108
Stream size                 : 19.5 MiB (0%)
Title                       : Spanish (PGS)
Language                    : Spanish
Default                     : No
Forced                      : No

Text #4
ID                          : 10
Format                      : PGS
Codec ID                    : S_HDMV/PGS
Codec ID/Info               : Picture based subtitle format used on BDs/HD-DVDs
Duration                    : 1 h 36 min 48 s
Bit rate                    : 27.8 kb/s
Count of elements           : 2084
Stream size                 : 19.3 MiB (0%)
Title                       : Portuguese (PGS)
Language                    : Portuguese
Default                     : No
Forced                      : No

Menu
00:00:00.000                : en:01 - Main Titles / Newsreel
00:02:15.510                : en:02 - Rescue Mission
00:05:42.217                : en:03 - Christophsis Under Siege
00:08:12.325                : en:04 - General Grievous & Count Dooku
00:11:30.147                : en:05 - The Traitor Revealed
00:15:02.818                : en:06 - Battle of Christophsis
00:19:40.092                : en:07 - Anakin's New Padawan
00:24:12.326                : en:08 - Shield Generator Infiltration
00:29:18.214                : en:09 - Asajj Ventress Attacks
00:34:05.118                : en:10 - Victory at Christophsis
00:38:22.425                : en:11 - Mission to Teth
00:43:10.887                : en:12 - Assaulting the Monastery
00:48:32.110                : en:13 - Rotta the Huttlet Found
00:53:15.002                : en:14 - Ambush on Teth
00:58:04.281                : en:15 - Escape to Tatooine
01:03:19.412                : en:16 - Padmé's Investigation
01:08:44.205                : en:17 - Crash Landing on Tatooine
01:13:22.180                : en:18 - Duel in the Dunes
01:18:50.320                : en:19 - Return to Jabba's Palace
01:24:15.011                : en:20 - Dooku's Deception Unraveled
01:29:30.114                : en:21 - Alliance Secured
01:35:10.020                : en:22 - End Credits
```
